# xmcd
#
# Track frame offsets: 
#        150
#        18497
#        32810
#        47415
#        68192
#        94131
#        110811
#        126229
#        168200
#        201286
#        212830
#
# Disc length: 3472 seconds
#
# Revision: 0
# Processed by: cddbd v1.5.2PL0 Copyright (c) Steve Scherf et al.
# Submitted via: ExactAudioCopy v0.99pb5
#
DISCID=9c0d8e0b
DTITLE=Rudy Rotta - Blue Inside
DYEAR=2009
DGENRE=Blues
TTITLE0=Lady
TTITLE1=I Been Up I Been Low
TTITLE2=Got A Hold On Me
TTITLE3=No One Cares
TTITLE4=Had A Friend
TTITLE5=Gimme Some
TTITLE6=Rock Me
TTITLE7=You're Gone [Instrumental Version]
TTITLE8=Bad Bad Feelin'
TTITLE9=She'd Hurt Too
TTITLE10=Lady [Reprise]
EXTD=
EXTT0=
EXTT1=
EXTT2=
EXTT3=
EXTT4=
EXTT5=
EXTT6=
EXTT7=
EXTT8=
EXTT9=
EXTT10=
PLAYORDER=
